<svg version="1.1" xmlns="http://www.w3.org/2000/svg" xmlns:xlink="http://www.w3.org/1999/xlink" width="470.38789" height="225.56983" viewBox="0,0,470.38789,225.56983"><g transform="translate(-5.14109,-69.97016)"><g data-paper-data="{&quot;isPaintingLayer&quot;:true}" fill-rule="nonzero" stroke-miterlimit="10" stroke-dasharray="" stroke-dashoffset="0" style="mix-blend-mode: normal"><path d="M172.92733,135.04697l3.73258,-4.12549l5.50065,4.97678l-3.73258,4.12549z" data-paper-data="{&quot;index&quot;:null}" fill="#66b3ff" stroke="#f04848" stroke-width="2" stroke-linecap="butt" stroke-linejoin="miter"/><path d="M185.7003,140.02375l-3.73258,-4.12549l5.50065,-4.97678l3.73258,4.12549z" fill="#66b3ff" stroke="#f04848" stroke-width="2" stroke-linecap="butt" stroke-linejoin="miter"/><path d="M182.45159,166.72654v-23.24671" fill="none" stroke="#ef4848" stroke-width="3" stroke-linecap="round" stroke-linejoin="miter"/><path d="M193.81663,177.67986c0,7.3823 -5.31958,13.36685 -11.88166,13.36685c-6.56204,0 -11.88166,-5.98454 -11.88166,-13.36685c0,-7.3823 5.31958,-13.36685 11.88166,-13.36685c6.56204,0 11.88166,5.98454 11.88166,13.36685z" fill="#ffb366" stroke="#ef4848" stroke-width="3" stroke-linecap="butt" stroke-linejoin="miter"/><path d="M185.6803,139.34708c0,2.21906 -1.61902,4.01793 -3.61616,4.01793c-1.99714,0 -3.61616,-1.7989 -3.61616,-4.01793c0,-2.21906 1.61902,-4.01793 3.61616,-4.01793c1.99714,0 3.61616,1.7989 3.61616,4.01793z" fill="#66ffbe" stroke="#68f048" stroke-width="0.5" stroke-linecap="butt" stroke-linejoin="miter"/><text transform="translate(12.02079,116.92323) scale(1.19973,1.19973)" font-size="40" xml:space="preserve" fill="#66b3ff" fill-rule="nonzero" stroke="none" stroke-width="1" stroke-linecap="butt" stroke-linejoin="miter" stroke-miterlimit="10" stroke-dasharray="" stroke-dashoffset="0" font-family="Curly" font-weight="normal" text-anchor="start" style="mix-blend-mode: normal"><tspan x="0" dy="0">HAPPY HALLOWEEN</tspan></text><g><g data-paper-data="{&quot;index&quot;:null}"><path d="M255.13459,283.73485c0.80516,0.80464 1.30307,1.916 1.30307,3.14239c0,1.22639 -0.49791,2.33775 -1.30307,3.14239c-0.80464,0.80516 -1.916,1.30307 -3.14239,1.30307c-1.22639,0 -2.33775,-0.49791 -3.14239,-1.30307c-0.80516,-0.80464 -1.30307,-1.916 -1.30307,-3.14239c0,-1.22639 0.49791,-2.33775 1.30307,-3.14239c0.80464,-0.80516 1.916,-1.30307 3.14239,-1.30307c1.22639,0 2.33775,0.49791 3.14239,1.30307z" fill="#f7c1d8" stroke="none" stroke-width="1" stroke-linecap="butt" stroke-linejoin="miter"/><path d="M251.9922,279.27643c4.2921,0 7.77178,3.47969 7.77178,7.77178c0,4.2921 -3.47969,7.77178 -7.77178,7.77178c-4.2921,0 -7.77178,-3.47969 -7.77178,-7.77178c0,-4.2921 3.47969,-7.77178 7.77178,-7.77178zM251.9922,290.87193c2.12481,-0.05129 3.81076,-1.80616 3.77657,-3.93097c-0.03368,-2.12481 -1.77508,-3.82527 -3.9004,-3.80869c-2.12481,0.0171 -3.83926,1.74399 -3.83978,3.86931c-0.00052,1.04297 0.42019,2.04191 1.16629,2.77038c0.74609,0.72848 1.75487,1.12535 2.79732,1.09997z" fill="#5e154d" stroke="#5e154d" stroke-width="1.44" stroke-linecap="round" stroke-linejoin="round"/><path d="M253.39889,285.59489c0.36009,0.36061 0.58288,0.858 0.58288,1.40669c0,0.54869 -0.22279,1.04608 -0.58288,1.40669c-0.36061,0.36009 -0.858,0.58288 -1.40669,0.58288c-0.54869,0 -1.04608,-0.22279 -1.40669,-0.58288c-0.36009,-0.36061 -0.58288,-0.858 -0.58288,-1.40669c0,-0.54869 0.22279,-1.04608 0.58288,-1.40669c0.36061,-0.36009 0.858,-0.58288 1.40669,-0.58288c0.54869,0 1.04608,0.22279 1.40669,0.58288z" fill="#ffffff" stroke="#da53d6" stroke-width="1.08" stroke-linecap="round" stroke-linejoin="round"/></g><g data-paper-data="{&quot;index&quot;:null}"><path d="M184.93725,280.7997c3.43357,0 6.21743,2.78385 6.21743,6.21743c0,3.43357 -2.78385,6.21743 -6.21743,6.21743c-3.43357,0 -6.21743,-2.78385 -6.21743,-6.21743c0,-3.43357 2.78385,-6.21743 6.21743,-6.21743z" fill="#f7c1d8" stroke="none" stroke-width="1" stroke-linecap="butt" stroke-linejoin="miter"/><path d="M184.93725,279.27643c4.2921,0 7.77178,3.47969 7.77178,7.77178c0,4.2921 -3.47969,7.77178 -7.77178,7.77178c-4.2921,0 -7.77178,-3.47969 -7.77178,-7.77178c0,-4.2921 3.47969,-7.77178 7.77178,-7.77178zM184.93725,290.87193c1.56524,0 2.97659,-0.94298 3.57554,-2.38905c0.59946,-1.44659 0.26787,-3.1113 -0.83883,-4.21801c-1.1067,-1.1067 -2.77142,-1.4383 -4.21801,-0.83883c-1.44607,0.59895 -2.38905,2.0103 -2.38905,3.57554c-0.00414,1.02795 0.40206,2.01445 1.12898,2.74137c0.72692,0.72692 1.71342,1.13313 2.74137,1.12898z" fill="#5e154d" stroke="#5e154d" stroke-width="1.44" stroke-linecap="round" stroke-linejoin="round"/><path d="M186.34394,285.59489c0.36009,0.36061 0.58288,0.858 0.58288,1.40669c0,0.54869 -0.22279,1.04608 -0.58288,1.40669c-0.36061,0.36009 -0.858,0.58288 -1.40669,0.58288c-0.54869,0 -1.04608,-0.22279 -1.40669,-0.58288c-0.36009,-0.36061 -0.58288,-0.858 -0.58288,-1.40669c0,-0.54869 0.22279,-1.04608 0.58288,-1.40669c0.36061,-0.36009 0.858,-0.58288 1.40669,-0.58288c0.54869,0 1.04608,0.22279 1.40669,0.58288z" fill="#ffffff" stroke="#da53d6" stroke-width="1.08" stroke-linecap="round" stroke-linejoin="round"/></g><g data-paper-data="{&quot;index&quot;:null}"><path d="M162.53897,280.7997c3.43357,0 6.21743,2.78385 6.21743,6.21743c0,3.43357 -2.78385,6.21743 -6.21743,6.21743c-3.43357,0 -6.21743,-2.78385 -6.21743,-6.21743c0,-3.43357 2.78385,-6.21743 6.21743,-6.21743z" fill="#f7c1d8" stroke="none" stroke-width="1" stroke-linecap="butt" stroke-linejoin="miter"/><path d="M162.53897,279.27643c4.2921,0 7.77178,3.47969 7.77178,7.77178c0,4.2921 -3.47969,7.77178 -7.77178,7.77178c-4.2921,0 -7.77178,-3.47969 -7.77178,-7.77178c0,-2.06108 0.81863,-4.03822 2.2761,-5.49569c1.45747,-1.45747 3.43461,-2.2761 5.49569,-2.2761zM162.53897,290.87193c2.13776,0 3.87035,-1.73259 3.87035,-3.87035c0,-2.13776 -1.73259,-3.87035 -3.87035,-3.87035c-2.13776,0 -3.87035,1.73259 -3.87035,3.87035c0,2.13776 1.73259,3.87035 3.87035,3.87035z" fill="#5e154d" stroke="#5e154d" stroke-width="1.44" stroke-linecap="round" stroke-linejoin="round"/><path d="M163.99229,285.59489c0.36009,0.36061 0.58288,0.858 0.58288,1.40669c0,0.54869 -0.22279,1.04608 -0.58288,1.40669c-0.36061,0.36009 -0.858,0.58288 -1.40669,0.58288c-0.54869,0 -1.04608,-0.22279 -1.40669,-0.58288c-0.36009,-0.36061 -0.58288,-0.858 -0.58288,-1.40669c0,-0.54869 0.22279,-1.04608 0.58288,-1.40669c0.36061,-0.36009 0.858,-0.58288 1.40669,-0.58288c0.54869,0 1.04608,0.22279 1.40669,0.58288z" fill="#ffffff" stroke="#da53d6" stroke-width="1.08" stroke-linecap="round" stroke-linejoin="round"/></g><g data-paper-data="{&quot;index&quot;:null}" stroke="#5e154d" stroke-linejoin="miter"><g><path d="M216.55286,288.36942h-14.54878v-6.82363h14.54878z" fill="#fdbb38" stroke-width="1.44" stroke-linecap="butt"/><path d="M212.26284,281.54579v6.82363" fill="none" stroke-width="1.08" stroke-linecap="round"/><path d="M206.27857,281.54579v6.82363" fill="none" stroke-width="1.08" stroke-linecap="round"/></g><path d="M229.65609,281.54579h-95.5774v-4.86514h95.5774z" fill="#ffffff" stroke-width="1.44" stroke-linecap="round"/><path d="M229.65609,287.00159h-92.32879v-5.45579h92.32879z" fill="#fdbb38" stroke-width="1.44" stroke-linecap="butt"/></g><g data-paper-data="{&quot;index&quot;:null}"><path d="M269.40099,267.83637l-10.49191,-5.90656l-0.48185,-2.2849c0,0 9.46603,5.23818 11.50224,6.38841c2.31599,1.29012 2.30045,2.40925 2.30045,5.16046v15.80781h-1.64762v-15.96324c-0.03109,-1.39892 -0.07772,-2.54915 -1.18131,-3.20197z" fill="#25b0b7" stroke="none" stroke-width="1" stroke-linecap="butt" stroke-linejoin="miter"/><path d="M250.63991,239.14294c2.25382,0 3.21752,0.6062 3.746,2.96882c0.1088,0.55957 0.37305,1.67871 0.68392,3.10871h-1.91186c-0.64039,0.00829 -1.15748,0.52537 -1.16577,1.16577v11.05148c0,0.64661 0.51967,1.17302 1.16577,1.18131h4.98949l0.2487,1.02588l0.51294,2.2849l10.523,5.90656c1.10359,0.62174 1.15022,1.80305 1.15022,3.20197v15.96324h-8.75103c0,-5.33973 -4.32837,-9.6681 -9.6681,-9.6681c-5.33973,0 -9.6681,4.32837 -9.6681,9.6681h-12.8079v-47.85864z" fill="#43c3d7" stroke="none" stroke-width="1" stroke-linecap="butt" stroke-linejoin="miter"/><path d="M239.37082,263.48417h-4.84959v-1.83414h4.84959z" fill="none" stroke="#009cc6" stroke-width="1.08" stroke-linecap="round" stroke-linejoin="round"/><path d="M266.77413,281.56134h-3.10871v-1.72534h3.10871z" fill="none" stroke="#5e154d" stroke-width="1.44" stroke-linecap="round" stroke-linejoin="round"/><path d="M233.63525,242.60916h14.39334c0.73469,0.00829 1.32846,0.60205 1.33675,1.33675v30.9317c-4.51023,0.71759 -8.0925,4.17552 -8.96864,8.65777h-6.777c-0.73469,-0.00829 -1.32846,-0.60205 -1.33675,-1.33675v-38.25272c0.00829,-0.74091 0.61138,-1.33675 1.35229,-1.33675z" fill="none" stroke="#009cc6" stroke-width="1.08" stroke-linecap="round" stroke-linejoin="round"/><path d="M247.23587,266.25092h-1.80305v-3.34187h1.80305z" fill="none" stroke="#009cc6" stroke-width="1.08" stroke-linecap="round" stroke-linejoin="round"/><path d="M234.50569,245.22048h1.47664l4.67861,13.39856h-6.15525v-13.39856" fill="#f7c1d8" stroke="none" stroke-width="1" stroke-linecap="butt" stroke-linejoin="miter"/><path d="M247.17369,245.22048v13.39856h-1.89632l-4.67861,-13.39856h6.57493" fill="#f7c1d8" stroke="none" stroke-width="1" stroke-linecap="butt" stroke-linejoin="miter"/><path d="M240.59876,245.22048l4.67861,13.39856h-2.34708l-4.69416,-13.39856h2.36262" fill="#ffeef6" stroke="none" stroke-width="1" stroke-linecap="butt" stroke-linejoin="miter"/><path d="M253.15797,245.17385h1.91186c0.94816,4.15013 2.50251,10.8805 3.10871,13.39856h-1.77197l-4.36774,-12.43485c0.10673,-0.5404 0.56889,-0.93831 1.11914,-0.9637z" fill="#f7c1d8" stroke="none" stroke-width="1" stroke-linecap="butt" stroke-linejoin="miter"/><path d="M255.06982,258.61903h-1.91186c-0.64609,-0.00829 -1.16577,-0.5347 -1.16577,-1.18131v-7.94276z" fill="#f7c1d8" stroke="none" stroke-width="1" stroke-linecap="butt" stroke-linejoin="miter"/><path d="M251.9922,246.38624c-0.00777,-0.07772 -0.00777,-0.15544 0,-0.23315l4.36774,12.43485h-1.30566l-3.10871,-9.12407z" fill="#ffeef6" stroke="none" stroke-width="1" stroke-linecap="butt" stroke-linejoin="miter"/><path d="M238.23614,245.22048l4.69416,13.39856h-1.22794l-4.67861,-13.39856h1.2124" fill="#f7c1d8" stroke="none" stroke-width="1" stroke-linecap="butt" stroke-linejoin="miter"/><path d="M237.02374,245.22048l4.67861,13.39856h-1.04142l-4.67861,-13.39856h1.04142" fill="#ffeef6" stroke="none" stroke-width="1" stroke-linecap="butt" stroke-linejoin="miter"/><path d="M257.99202,242.15839c0.65283,0 0.80827,0.68392 1.18131,1.9274c0.51294,1.72534 1.38338,5.03612 1.38338,5.03612h-2.40925l-1.70979,-6.96352z" fill="#43c3d7" stroke="#5e154d" stroke-width="1.08" stroke-linecap="round" stroke-linejoin="round"/><path d="M256.43766,242.15839l0.45076,1.80305h-2.09838l-0.40413,-1.80305h2.05175" fill="#43c3d7" stroke="#5e154d" stroke-width="1.08" stroke-linecap="round" stroke-linejoin="round"/><path d="M250.63991,239.14294c2.25382,0 3.21752,0.6062 3.746,2.96882c0.1088,0.55957 0.37305,1.67871 0.68392,3.10871c0.94816,4.15013 2.50251,10.8805 3.10871,13.39856l0.2487,1.02588c0,0 9.46603,5.23818 11.50224,6.38841c2.31599,1.29012 2.30045,2.40925 2.30045,5.16046v15.80781h-10.39865c0,-5.33973 -4.32837,-9.6681 -9.6681,-9.6681c-5.33973,0 -9.6681,4.32837 -9.6681,9.6681h-12.8079v-47.85864z" fill="none" stroke="#5e154d" stroke-width="1.44" stroke-linecap="butt" stroke-linejoin="round"/><path d="M247.17369,258.61903h-12.66801v-13.39856h12.66801z" fill="none" stroke="#5e154d" stroke-width="1.08" stroke-linecap="round" stroke-linejoin="round"/><path d="M250.63991,239.14294c2.25382,0 3.21752,0.6062 3.746,2.96882c0.1088,0.55957 0.37305,1.67871 0.68392,3.10871c0.94816,4.15013 2.50251,10.8805 3.10871,13.39856l0.2487,1.02588c0,0 9.46603,5.23818 11.50224,6.38841c2.31599,1.29012 2.30045,2.40925 2.30045,5.16046v15.80781h-10.39865c0,-5.33973 -4.32837,-9.6681 -9.6681,-9.6681c-5.33973,0 -9.6681,4.32837 -9.6681,9.6681h-12.8079v-47.85864z" fill="none" stroke="#5e154d" stroke-width="1.44" stroke-linecap="round" stroke-linejoin="round"/><path d="M252.00774,246.15309c0.12176,-0.53936 0.59739,-0.92484 1.15022,-0.93261h1.91186c0.94816,4.15013 2.50251,10.8805 3.10871,13.39856h-5.02057c-0.64609,-0.00829 -1.16577,-0.5347 -1.16577,-1.18131v-11.05148c-0.00259,-0.07824 0.00259,-0.15595 0.01554,-0.23315z" fill="none" stroke="#5e154d" stroke-width="1.08" stroke-linecap="round" stroke-linejoin="round"/><path d="M273.3646,282.82037v1.44555h-6.85471l-0.31087,-1.44555h7.16558" fill="#00828c" stroke="#5e154d" stroke-width="1.08" stroke-linecap="round" stroke-linejoin="round"/><path d="M273.3646,285.54049h-6.59047l-0.26424,-1.27457h6.85471v1.27457" fill="#00828c" stroke="#5e154d" stroke-width="1.08" stroke-linecap="round" stroke-linejoin="round"/><path d="M265.93478,281.54579h7.42983v1.27457h-7.16558l-0.26424,-1.27457" fill="#00828c" stroke="#5e154d" stroke-width="1.08" stroke-linecap="round" stroke-linejoin="round"/><path d="M272.19884,273.64966h1.16577c0.90153,0 1.29012,1.3212 1.44555,2.65795h-2.61132z" fill="#fdbb38" stroke="none" stroke-width="1" stroke-linecap="butt" stroke-linejoin="miter"/><path d="M274.81016,276.26098c0.10414,0.88184 0.14041,1.77041 0.1088,2.65795h-2.72012v-2.65795z" fill="#ffffff" stroke="none" stroke-width="1" stroke-linecap="butt" stroke-linejoin="miter"/><path d="M273.3646,273.64966c0.90153,0 1.29012,1.3212 1.44555,2.65795c0.10414,0.88184 0.14041,1.77041 0.1088,2.65795h-2.72012v-5.3159z" fill="none" stroke="#5e154d" stroke-width="1.44" stroke-linecap="round" stroke-linejoin="round"/></g></g></g></g></svg>