<svg version="1.1" xmlns="http://www.w3.org/2000/svg" xmlns:xlink="http://www.w3.org/1999/xlink" width="470.38789" height="161.56983" viewBox="0,0,470.38789,161.56983"><g transform="translate(-6.14109,-133.97016)"><g data-paper-data="{&quot;isPaintingLayer&quot;:true}" stroke-miterlimit="10" stroke-dasharray="" stroke-dashoffset="0" style="mix-blend-mode: normal"><g fill-rule="nonzero"><g data-paper-data="{&quot;index&quot;:null}"><path d="M255.13459,283.73485c0.80516,0.80464 1.30307,1.916 1.30307,3.14239c0,1.22639 -0.49791,2.33775 -1.30307,3.14239c-0.80464,0.80516 -1.916,1.30307 -3.14239,1.30307c-1.22639,0 -2.33775,-0.49791 -3.14239,-1.30307c-0.80516,-0.80464 -1.30307,-1.916 -1.30307,-3.14239c0,-1.22639 0.49791,-2.33775 1.30307,-3.14239c0.80464,-0.80516 1.916,-1.30307 3.14239,-1.30307c1.22639,0 2.33775,0.49791 3.14239,1.30307z" fill="#f7c1d8" stroke="none" stroke-width="1" stroke-linecap="butt" stroke-linejoin="miter"/><path d="M251.9922,279.27643c4.2921,0 7.77178,3.47969 7.77178,7.77178c0,4.2921 -3.47969,7.77178 -7.77178,7.77178c-4.2921,0 -7.77178,-3.47969 -7.77178,-7.77178c0,-4.2921 3.47969,-7.77178 7.77178,-7.77178zM251.9922,290.87193c2.12481,-0.05129 3.81076,-1.80616 3.77657,-3.93097c-0.03368,-2.12481 -1.77508,-3.82527 -3.9004,-3.80869c-2.12481,0.0171 -3.83926,1.74399 -3.83978,3.86931c-0.00052,1.04297 0.42019,2.04191 1.16629,2.77038c0.74609,0.72848 1.75487,1.12535 2.79732,1.09997z" fill="#5e154d" stroke="#5e154d" stroke-width="1.44" stroke-linecap="round" stroke-linejoin="round"/><path d="M253.39889,285.59489c0.36009,0.36061 0.58288,0.858 0.58288,1.40669c0,0.54869 -0.22279,1.04608 -0.58288,1.40669c-0.36061,0.36009 -0.858,0.58288 -1.40669,0.58288c-0.54869,0 -1.04608,-0.22279 -1.40669,-0.58288c-0.36009,-0.36061 -0.58288,-0.858 -0.58288,-1.40669c0,-0.54869 0.22279,-1.04608 0.58288,-1.40669c0.36061,-0.36009 0.858,-0.58288 1.40669,-0.58288c0.54869,0 1.04608,0.22279 1.40669,0.58288z" fill="#ffffff" stroke="#da53d6" stroke-width="1.08" stroke-linecap="round" stroke-linejoin="round"/></g><g data-paper-data="{&quot;index&quot;:null}"><path d="M184.93725,280.7997c3.43357,0 6.21743,2.78385 6.21743,6.21743c0,3.43357 -2.78385,6.21743 -6.21743,6.21743c-3.43357,0 -6.21743,-2.78385 -6.21743,-6.21743c0,-3.43357 2.78385,-6.21743 6.21743,-6.21743z" fill="#f7c1d8" stroke="none" stroke-width="1" stroke-linecap="butt" stroke-linejoin="miter"/><path d="M184.93725,279.27643c4.2921,0 7.77178,3.47969 7.77178,7.77178c0,4.2921 -3.47969,7.77178 -7.77178,7.77178c-4.2921,0 -7.77178,-3.47969 -7.77178,-7.77178c0,-4.2921 3.47969,-7.77178 7.77178,-7.77178zM184.93725,290.87193c1.56524,0 2.97659,-0.94298 3.57554,-2.38905c0.59946,-1.44659 0.26787,-3.1113 -0.83883,-4.21801c-1.1067,-1.1067 -2.77142,-1.4383 -4.21801,-0.83883c-1.44607,0.59895 -2.38905,2.0103 -2.38905,3.57554c-0.00414,1.02795 0.40206,2.01445 1.12898,2.74137c0.72692,0.72692 1.71342,1.13313 2.74137,1.12898z" fill="#5e154d" stroke="#5e154d" stroke-width="1.44" stroke-linecap="round" stroke-linejoin="round"/><path d="M186.34394,285.59489c0.36009,0.36061 0.58288,0.858 0.58288,1.40669c0,0.54869 -0.22279,1.04608 -0.58288,1.40669c-0.36061,0.36009 -0.858,0.58288 -1.40669,0.58288c-0.54869,0 -1.04608,-0.22279 -1.40669,-0.58288c-0.36009,-0.36061 -0.58288,-0.858 -0.58288,-1.40669c0,-0.54869 0.22279,-1.04608 0.58288,-1.40669c0.36061,-0.36009 0.858,-0.58288 1.40669,-0.58288c0.54869,0 1.04608,0.22279 1.40669,0.58288z" fill="#ffffff" stroke="#da53d6" stroke-width="1.08" stroke-linecap="round" stroke-linejoin="round"/></g><g data-paper-data="{&quot;index&quot;:null}"><path d="M162.53897,280.7997c3.43357,0 6.21743,2.78385 6.21743,6.21743c0,3.43357 -2.78385,6.21743 -6.21743,6.21743c-3.43357,0 -6.21743,-2.78385 -6.21743,-6.21743c0,-3.43357 2.78385,-6.21743 6.21743,-6.21743z" fill="#f7c1d8" stroke="none" stroke-width="1" stroke-linecap="butt" stroke-linejoin="miter"/><path d="M162.53897,279.27643c4.2921,0 7.77178,3.47969 7.77178,7.77178c0,4.2921 -3.47969,7.77178 -7.77178,7.77178c-4.2921,0 -7.77178,-3.47969 -7.77178,-7.77178c0,-2.06108 0.81863,-4.03822 2.2761,-5.49569c1.45747,-1.45747 3.43461,-2.2761 5.49569,-2.2761zM162.53897,290.87193c2.13776,0 3.87035,-1.73259 3.87035,-3.87035c0,-2.13776 -1.73259,-3.87035 -3.87035,-3.87035c-2.13776,0 -3.87035,1.73259 -3.87035,3.87035c0,2.13776 1.73259,3.87035 3.87035,3.87035z" fill="#5e154d" stroke="#5e154d" stroke-width="1.44" stroke-linecap="round" stroke-linejoin="round"/><path d="M163.99229,285.59489c0.36009,0.36061 0.58288,0.858 0.58288,1.40669c0,0.54869 -0.22279,1.04608 -0.58288,1.40669c-0.36061,0.36009 -0.858,0.58288 -1.40669,0.58288c-0.54869,0 -1.04608,-0.22279 -1.40669,-0.58288c-0.36009,-0.36061 -0.58288,-0.858 -0.58288,-1.40669c0,-0.54869 0.22279,-1.04608 0.58288,-1.40669c0.36061,-0.36009 0.858,-0.58288 1.40669,-0.58288c0.54869,0 1.04608,0.22279 1.40669,0.58288z" fill="#ffffff" stroke="#da53d6" stroke-width="1.08" stroke-linecap="round" stroke-linejoin="round"/></g><g data-paper-data="{&quot;index&quot;:null}" stroke="#5e154d" stroke-linejoin="miter"><g><path d="M216.55286,288.36942h-14.54878v-6.82363h14.54878z" fill="#fdbb38" stroke-width="1.44" stroke-linecap="butt"/><path d="M212.26284,288.36942v-6.82363" fill="none" stroke-width="1.08" stroke-linecap="round"/><path d="M206.27857,288.36942v-6.82363" fill="none" stroke-width="1.08" stroke-linecap="round"/></g><path d="M229.65609,281.54579h-95.5774v-4.86514h95.5774z" fill="#ffffff" stroke-width="1.44" stroke-linecap="round"/><path d="M229.65609,287.00159h-92.32879v-5.45579h92.32879z" fill="#fdbb38" stroke-width="1.44" stroke-linecap="butt"/></g><g data-paper-data="{&quot;index&quot;:null}"><path d="M269.40099,267.83637l-10.49191,-5.90656l-0.48185,-2.2849c0,0 9.46603,5.23818 11.50224,6.38841c2.31599,1.29012 2.30045,2.40925 2.30045,5.16046v15.80781h-1.64762v-15.96324c-0.03109,-1.39892 -0.07772,-2.54915 -1.18131,-3.20197z" fill="#25b0b7" stroke="none" stroke-width="1" stroke-linecap="butt" stroke-linejoin="miter"/><path d="M250.63991,239.14294c2.25382,0 3.21752,0.6062 3.746,2.96882c0.1088,0.55957 0.37305,1.67871 0.68392,3.10871h-1.91186c-0.64039,0.00829 -1.15748,0.52537 -1.16577,1.16577v11.05148c0,0.64661 0.51967,1.17302 1.16577,1.18131h4.98949l0.2487,1.02588l0.51294,2.2849l10.523,5.90656c1.10359,0.62174 1.15022,1.80305 1.15022,3.20197v15.96324h-8.75103c0,-5.33973 -4.32837,-9.6681 -9.6681,-9.6681c-5.33973,0 -9.6681,4.32837 -9.6681,9.6681h-12.8079v-47.85864z" fill="#43c3d7" stroke="none" stroke-width="1" stroke-linecap="butt" stroke-linejoin="miter"/><path d="M239.37082,263.48417h-4.84959v-1.83414h4.84959z" fill="none" stroke="#009cc6" stroke-width="1.08" stroke-linecap="round" stroke-linejoin="round"/><path d="M266.77413,281.56134h-3.10871v-1.72534h3.10871z" fill="none" stroke="#5e154d" stroke-width="1.44" stroke-linecap="round" stroke-linejoin="round"/><path d="M233.63525,242.60916h14.39334c0.73469,0.00829 1.32846,0.60205 1.33675,1.33675v30.9317c-4.51023,0.71759 -8.0925,4.17552 -8.96864,8.65777h-6.777c-0.73469,-0.00829 -1.32846,-0.60205 -1.33675,-1.33675v-38.25272c0.00829,-0.74091 0.61138,-1.33675 1.35229,-1.33675z" fill="none" stroke="#009cc6" stroke-width="1.08" stroke-linecap="round" stroke-linejoin="round"/><path d="M247.23587,266.25092h-1.80305v-3.34187h1.80305z" fill="none" stroke="#009cc6" stroke-width="1.08" stroke-linecap="round" stroke-linejoin="round"/><path d="M234.50569,245.22048h1.47664l4.67861,13.39856h-6.15525v-13.39856" fill="#f7c1d8" stroke="none" stroke-width="1" stroke-linecap="butt" stroke-linejoin="miter"/><path d="M247.17369,245.22048v13.39856h-1.89632l-4.67861,-13.39856h6.57493" fill="#f7c1d8" stroke="none" stroke-width="1" stroke-linecap="butt" stroke-linejoin="miter"/><path d="M240.59876,245.22048l4.67861,13.39856h-2.34708l-4.69416,-13.39856h2.36262" fill="#ffeef6" stroke="none" stroke-width="1" stroke-linecap="butt" stroke-linejoin="miter"/><path d="M253.15797,245.17385h1.91186c0.94816,4.15013 2.50251,10.8805 3.10871,13.39856h-1.77197l-4.36774,-12.43485c0.10673,-0.5404 0.56889,-0.93831 1.11914,-0.9637z" fill="#f7c1d8" stroke="none" stroke-width="1" stroke-linecap="butt" stroke-linejoin="miter"/><path d="M255.06982,258.61903h-1.91186c-0.64609,-0.00829 -1.16577,-0.5347 -1.16577,-1.18131v-7.94276z" fill="#f7c1d8" stroke="none" stroke-width="1" stroke-linecap="butt" stroke-linejoin="miter"/><path d="M251.9922,246.38624c-0.00777,-0.07772 -0.00777,-0.15544 0,-0.23315l4.36774,12.43485h-1.30566l-3.10871,-9.12407z" fill="#ffeef6" stroke="none" stroke-width="1" stroke-linecap="butt" stroke-linejoin="miter"/><path d="M238.23614,245.22048l4.69416,13.39856h-1.22794l-4.67861,-13.39856h1.2124" fill="#f7c1d8" stroke="none" stroke-width="1" stroke-linecap="butt" stroke-linejoin="miter"/><path d="M237.02374,245.22048l4.67861,13.39856h-1.04142l-4.67861,-13.39856h1.04142" fill="#ffeef6" stroke="none" stroke-width="1" stroke-linecap="butt" stroke-linejoin="miter"/><path d="M257.99202,242.15839c0.65283,0 0.80827,0.68392 1.18131,1.9274c0.51294,1.72534 1.38338,5.03612 1.38338,5.03612h-2.40925l-1.70979,-6.96352z" fill="#43c3d7" stroke="#5e154d" stroke-width="1.08" stroke-linecap="round" stroke-linejoin="round"/><path d="M256.43766,242.15839l0.45076,1.80305h-2.09838l-0.40413,-1.80305h2.05175" fill="#43c3d7" stroke="#5e154d" stroke-width="1.08" stroke-linecap="round" stroke-linejoin="round"/><path d="M250.63991,239.14294c2.25382,0 3.21752,0.6062 3.746,2.96882c0.1088,0.55957 0.37305,1.67871 0.68392,3.10871c0.94816,4.15013 2.50251,10.8805 3.10871,13.39856l0.2487,1.02588c0,0 9.46603,5.23818 11.50224,6.38841c2.31599,1.29012 2.30045,2.40925 2.30045,5.16046v15.80781h-10.39865c0,-5.33973 -4.32837,-9.6681 -9.6681,-9.6681c-5.33973,0 -9.6681,4.32837 -9.6681,9.6681h-12.8079v-47.85864z" fill="none" stroke="#5e154d" stroke-width="1.44" stroke-linecap="butt" stroke-linejoin="round"/><path d="M247.17369,258.61903h-12.66801v-13.39856h12.66801z" fill="none" stroke="#5e154d" stroke-width="1.08" stroke-linecap="round" stroke-linejoin="round"/><path d="M250.63991,239.14294c2.25382,0 3.21752,0.6062 3.746,2.96882c0.1088,0.55957 0.37305,1.67871 0.68392,3.10871c0.94816,4.15013 2.50251,10.8805 3.10871,13.39856l0.2487,1.02588c0,0 9.46603,5.23818 11.50224,6.38841c2.31599,1.29012 2.30045,2.40925 2.30045,5.16046v15.80781h-10.39865c0,-5.33973 -4.32837,-9.6681 -9.6681,-9.6681c-5.33973,0 -9.6681,4.32837 -9.6681,9.6681h-12.8079v-47.85864z" fill="none" stroke="#5e154d" stroke-width="1.44" stroke-linecap="round" stroke-linejoin="round"/><path d="M252.00774,246.15309c0.12176,-0.53936 0.59739,-0.92484 1.15022,-0.93261h1.91186c0.94816,4.15013 2.50251,10.8805 3.10871,13.39856h-5.02057c-0.64609,-0.00829 -1.16577,-0.5347 -1.16577,-1.18131v-11.05148c-0.00259,-0.07824 0.00259,-0.15595 0.01554,-0.23315z" fill="none" stroke="#5e154d" stroke-width="1.08" stroke-linecap="round" stroke-linejoin="round"/><path d="M273.3646,282.82037v1.44555h-6.85471l-0.31087,-1.44555h7.16558" fill="#00828c" stroke="#5e154d" stroke-width="1.08" stroke-linecap="round" stroke-linejoin="round"/><path d="M273.3646,285.54049h-6.59047l-0.26424,-1.27457h6.85471v1.27457" fill="#00828c" stroke="#5e154d" stroke-width="1.08" stroke-linecap="round" stroke-linejoin="round"/><path d="M265.93478,281.54579h7.42983v1.27457h-7.16558l-0.26424,-1.27457" fill="#00828c" stroke="#5e154d" stroke-width="1.08" stroke-linecap="round" stroke-linejoin="round"/><path d="M272.19884,273.64966h1.16577c0.90153,0 1.29012,1.3212 1.44555,2.65795h-2.61132z" fill="#fdbb38" stroke="none" stroke-width="1" stroke-linecap="butt" stroke-linejoin="miter"/><path d="M274.81016,276.26098c0.10414,0.88184 0.14041,1.77041 0.1088,2.65795h-2.72012v-2.65795z" fill="#ffffff" stroke="none" stroke-width="1" stroke-linecap="butt" stroke-linejoin="miter"/><path d="M273.3646,273.64966c0.90153,0 1.29012,1.3212 1.44555,2.65795c0.10414,0.88184 0.14041,1.77041 0.1088,2.65795h-2.72012v-5.3159z" fill="none" stroke="#5e154d" stroke-width="1.44" stroke-linecap="round" stroke-linejoin="round"/></g></g><g fill-rule="nonzero" stroke-linejoin="miter"><path d="M173.92733,199.04697l3.73258,-4.12549l5.50065,4.97678l-3.73258,4.12549z" data-paper-data="{&quot;index&quot;:null}" fill="#66b3ff" stroke="#f04848" stroke-width="2" stroke-linecap="butt"/><path d="M186.7003,204.02375l-3.73258,-4.12549l5.50065,-4.97678l3.73258,4.12549z" fill="#66b3ff" stroke="#f04848" stroke-width="2" stroke-linecap="butt"/><path d="M183.45159,230.72654v-23.24671" fill="none" stroke="#ef4848" stroke-width="3" stroke-linecap="round"/><path d="M194.81663,241.67986c0,7.3823 -5.31958,13.36685 -11.88166,13.36685c-6.56204,0 -11.88166,-5.98454 -11.88166,-13.36685c0,-7.3823 5.31958,-13.36685 11.88166,-13.36685c6.56204,0 11.88166,5.98454 11.88166,13.36685z" fill="#ffb366" stroke="#ef4848" stroke-width="3" stroke-linecap="butt"/><path d="M186.6803,203.34708c0,2.21906 -1.61902,4.01793 -3.61616,4.01793c-1.99714,0 -3.61616,-1.7989 -3.61616,-4.01793c0,-2.21906 1.61902,-4.01793 3.61616,-4.01793c1.99714,0 3.61616,1.7989 3.61616,4.01793z" fill="#66ffbe" stroke="#68f048" stroke-width="0.5" stroke-linecap="butt"/><text transform="translate(13.02079,180.92323) scale(1.19973,1.19973)" font-size="40" xml:space="preserve" fill="#66b3ff" fill-rule="nonzero" stroke="none" stroke-width="1" stroke-linecap="butt" stroke-linejoin="miter" stroke-miterlimit="10" stroke-dasharray="" stroke-dashoffset="0" font-family="Curly" font-weight="normal" text-anchor="start" style="mix-blend-mode: normal"><tspan x="0" dy="0">HAPPY HALLOWEEN</tspan></text></g><g fill-rule="evenodd" stroke="none" stroke-width="1" stroke-linecap="butt" stroke-linejoin="miter"><g><g><path d="M244.28742,271.51729c-0.7524,0.25712 -2.65322,0.17801 -2.65322,0.17801c0,0 -1.04941,-2.13601 -1.485,-3.06557h3.54422c0.198,0.85045 0.5346,2.57112 0.59401,2.88756z" fill="#a0640a"/><path d="M244.38644,270.17241l-4.29664,-0.07911l-1.10882,-3.95558c0,0 0.29702,-1.22621 2.51462,-0.94933c2.21763,0.27689 2.45522,2.4129 2.45522,2.4129z" fill="#000000"/></g><g><g><path d="M247.15347,278.34758c-0.1386,0.03956 -2.61364,0.51422 -2.61364,0.51422c-0.09899,-0.11867 -0.17818,-0.31644 -0.23759,-0.4549l1.50479,-0.39555c0.21782,0.03956 1.06921,0.11867 1.30682,0.11867c0,0.03956 0.0594,0.19778 0.03961,0.21757z" fill="#000000"/><path d="M244.28242,278.4069c-0.1386,-0.23733 -1.74241,-3.57979 -2.39582,-5.32022c-0.0792,-0.19778 -0.4158,-0.92956 -0.79201,-1.7009h3.44523l1.26721,6.62557z" fill="#f01446"/></g><path d="M241.19361,271.78134l3.46503,0.03956l0.1386,0.63289l-3.30663,0.01978z" fill="#f5cfcf"/><path d="M241.66881,272.86912l3.22743,-0.05933l0.1386,0.57356l-3.04923,0.178z" fill="#f5cfcf"/></g></g><g><g><path d="M233.34516,270.70365c0.31681,-0.47466 0.3366,-1.02844 0.37618,-1.54265c0.396,-0.31644 3.02943,0.27689 3.52445,0.47466c-0.198,0.98888 -0.45541,2.01734 -1.08903,2.86777c-0.43559,-0.01976 -0.99001,-0.63288 -1.36619,-0.85042c-0.45541,-0.29668 -0.99001,-0.57356 -1.44542,-0.94935z" fill="#a0640a"/><path d="M238.55259,267.20297l-0.59401,3.3227l-5.00943,-1.28556l0.7524,-3.34246c0,0 0.55442,-2.01734 2.97003,-1.44378c2.45522,0.57356 1.88101,2.72934 1.88101,2.7491z" fill="#000000"/></g><g><path d="M227.70156,271.43487l-0.43562,1.36467c-0.17818,0.25709 -0.49499,0.85042 -0.63359,1.08778l-0.23761,0.01976c0.0594,-0.23733 0.59401,-2.51177 0.79201,-2.59088h0.29702c0.09899,0.03956 0.09899,0.03956 0.21779,0.11867z" fill="#000000"/><path d="M229.85979,274.20377c-0.97022,-0.39555 -1.76223,-0.83069 -2.61364,-1.42402l0.43562,-1.36467c0.9504,0.65268 2.37602,1.08778 3.52442,0.77134c0.69299,-0.23733 1.30682,-0.65268 1.74241,-1.22624c0.0792,-0.09887 0.2772,-0.41532 0.3366,-0.53398l3.40565,1.91844c-0.31681,0.4549 -1.08903,1.36467 -1.54443,1.68111c-0.2772,0.19778 -0.8118,0.356 -1.44542,0.43511c-0.65338,0.17801 -1.287,0.21757 -1.94041,0.19778c-0.09899,0 -1.3464,-0.21754 -1.9008,-0.45487z" fill="#f01446"/></g><path d="M235.93842,273.49234l-3.22743,-2.4129l0.3168,-0.37578l3.40563,2.25467z" fill="#f5cfcf"/><path d="M234.51281,274.40212l-2.35622,-2.78867l0.396,-0.31644l2.87102,2.74912z" fill="#f5cfcf"/></g><path d="M233.71729,265.89245l0.69301,-2.96667l9.06848,1.76023l0.4752,2.92712c-0.3168,-0.05933 -10.23669,-1.74045 -10.23669,-1.72067z" fill="#000000"/><g><path d="M244.71324,248.21107c0.29699,-0.77134 2.59382,-1.22621 2.11859,0.33623c-0.4752,1.56245 -2.11859,1.10755 -2.11859,1.10755c0,0 -0.15842,-1.06799 0,-1.44378z" fill="#824600"/><path d="M246.25765,247.14308c0.01979,1.68111 -0.69302,3.18421 -1.40581,3.95555c-1.22762,1.28556 -3.64323,1.02846 -4.27685,0.83069c-1.16822,-0.37579 -2.27701,-2.03714 -2.93042,-3.57979c-0.198,-0.59336 -0.37621,-1.20645 -0.51481,-1.83936l5.56385,-3.04578c0,0 2.53441,0.53401 2.67301,0.73179c0.198,0.23733 0.89102,1.78001 0.89102,2.94691z" fill="#a0640a"/><path d="M236.57537,242.9304l0.17818,-0.11869c-0.2772,-0.6922 -0.85138,-1.76022 0.27723,-1.99755c0.69299,-0.13843 1.683,0.63288 1.88101,1.246c0.11881,0.05935 0.11881,0.05935 0.23761,-0.01976c-0.07922,-0.51422 -0.31681,-1.16689 0.11878,-1.56245c1.28703,-0.73179 1.90083,1.08778 2.65322,1.81954l0.17821,-0.01976c0.1386,-0.57356 -0.25741,-1.36467 0.59401,-1.38446c0.57421,-0.01976 0.83162,0.47466 1.10882,0.85045c0.69299,0.89001 1.64342,2.47224 1.64342,2.47224c0,0 0,0.98888 -1.48503,1.246c-0.7326,0.13843 -2.0196,-0.63291 -3.97983,0.13843c-1.9602,0.77134 -1.94041,3.44133 -1.94041,3.44133c0,0 -2.15823,-3.97534 -2.41564,-4.54888c-0.198,-0.43514 -0.7326,-1.68114 -0.2772,-2.0569c0.3366,-0.27689 0.93061,0.31644 1.22762,0.49445z" fill="#000000"/><path d="M238.33756,249.51642c0,0 -1.64339,0.45487 -2.11862,-1.10757c-0.4752,-1.56245 1.82163,-1.10755 2.11862,-0.33621c0.1386,0.37576 0,1.44378 0,1.44378z" fill="#a0640a"/><path d="M241.40661,249.12084c0.85138,0.07911 1.6236,0.39558 2.41561,0.73179c-0.396,1.34491 -3.20762,0.49445 -2.41561,-0.73179z" fill="#000000"/><path d="M242.95101,248.70552c-0.4752,-0.85045 1.36622,-1.62179 1.60381,-0.37579c0.15842,0.96912 -1.02959,0.51422 -1.60381,0.37579z" fill="#824600"/><g fill="#000000"><path d="M241.35201,247.85248l-0.11881,0.27689h-0.198c-0.0594,-0.33623 0.198,-0.85045 0.31681,-0.27689z"/><path d="M245.62886,248.56447l-0.17821,-0.01976l-0.0594,-0.39555c0.11881,-0.13846 0.11881,-0.13846 0.23761,-0.0989c0.0594,0.15822 0.0594,0.33623 0,0.51422z"/></g></g><g><path d="M255.6605,257.70125c-0.0594,0.15822 -1.96023,1.46357 -3.96004,1.79978c-2.4354,0.39558 -5.10844,-0.17798 -6.21723,-0.43511v-3.56c1.16819,0.49445 2.51459,1.20645 2.9106,1.34488c0.67323,0.23736 3.00964,0.65268 2.98985,0.63291c0.45538,0.01976 0.91079,0.01976 1.3464,-0.05935c0.3366,-0.05932 0.97019,-0.29665 1.24742,-0.37579c0.79201,-0.21754 1.16819,-0.45487 1.2276,-0.33621c0.01979,0.09887 -0.9504,0.55377 -0.83159,0.69223c0.11878,0.13843 1.089,-0.39558 1.1484,-0.25712c0.09899,0.15822 -0.97022,0.61312 -0.79201,0.7911c0.15839,0.17801 1.06921,-0.57354 0.93061,-0.23733z" fill="#a0640a"/><path d="M247.34444,255.8026c0,0.07911 -1.02962,4.15333 -1.02962,4.15333c0,0 -3.10863,-0.98888 -3.90064,-1.38443c0,0 -3.62341,-1.60203 -2.81161,-3.67869c0.8118,-2.07666 3.12842,-0.92956 3.12842,-0.92956c-0.03961,-0.03956 4.37584,1.72067 4.61345,1.83936z" fill="#be0a3c"/><path d="M253.06668,258.01769c-0.4752,-0.01976 -0.59401,-0.51422 -0.59401,-0.51422c0,0 1.24742,-1.16689 1.40581,-1.04823c0.1386,0.11867 -0.11881,0.43511 -0.31681,0.79113c0.49502,0.356 0,0.81087 -0.49499,0.77131z" fill="#824600"/></g><g><path d="M227.93564,262.22489c-0.63362,-0.17798 0.25741,-2.65023 0.396,-2.86777c0.11881,0.25709 -0.11881,2.72934 -0.396,2.86777z" fill="#824600"/><path d="M235.34091,252.2173l-0.69302,3.56003c-1.02959,-0.17801 -2.19781,0.17798 -2.98982,0.71199c-0.6138,0.43511 -1.5444,1.50313 -2.0196,2.07666c-1.06921,1.22624 -2.85122,4.41045 -2.97003,4.33134c-0.11881,-0.07911 0.4752,-1.12731 0.31681,-1.246c-0.15842,-0.11867 -0.7326,1.38446 -0.93061,1.22624c-0.198,-0.15822 0.55439,-1.36467 0.17818,-1.50313c-0.37618,-0.13843 -0.69299,1.10757 -0.83159,0.9098c-0.1386,-0.19778 1.6236,-4.62802 2.87102,-6.5267c0.65341,-1.00867 1.5444,-1.85912 2.59382,-2.45245c0.85141,-0.51422 3.44523,-1.18666 4.47485,-1.08778z" fill="#a0640a"/><path d="M242.27095,253.70064c0,0 0.8712,0.96912 -0.65341,2.67002c-1.52461,1.7009 -4.09861,0.47466 -4.09861,0.47466c-1.60384,-0.69223 -3.42544,-0.77134 -3.42544,-0.77134l-0.23761,-4.0149c0,0 0.77222,-0.29665 2.91063,-0.11867c2.13844,0.17801 5.44504,1.74046 5.50444,1.76022z" fill="#f01446"/></g><path d="M243.83517,265.27934l-10.65249,-0.92956c0,0 1.99982,-5.59713 3.10863,-7.8518c0.2178,-0.47467 1.68301,-2.09645 1.76221,-2.15578c0.75241,-0.55378 1.86122,-0.81089 2.77202,-0.89c2.73242,-0.23733 4.21743,2.72934 4.15803,5.14223c-0.0396,1.28556 -1.16821,6.68491 -1.14841,6.68491z" fill="#f01446"/></g></g></g></svg>