<svg version="1.1" xmlns="http://www.w3.org/2000/svg" xmlns:xlink="http://www.w3.org/1999/xlink" width="470.38789" height="141.56983" viewBox="0,0,470.38789,141.56983"><g transform="translate(-6.14109,-153.97016)"><g data-paper-data="{&quot;isPaintingLayer&quot;:true}" stroke-miterlimit="10" stroke-dasharray="" stroke-dashoffset="0" style="mix-blend-mode: normal"><g fill-rule="nonzero"><g data-paper-data="{&quot;index&quot;:null}"><path d="M255.13459,283.73485c0.80516,0.80464 1.30307,1.916 1.30307,3.14239c0,1.22639 -0.49791,2.33775 -1.30307,3.14239c-0.80464,0.80516 -1.916,1.30307 -3.14239,1.30307c-1.22639,0 -2.33775,-0.49791 -3.14239,-1.30307c-0.80516,-0.80464 -1.30307,-1.916 -1.30307,-3.14239c0,-1.22639 0.49791,-2.33775 1.30307,-3.14239c0.80464,-0.80516 1.916,-1.30307 3.14239,-1.30307c1.22639,0 2.33775,0.49791 3.14239,1.30307z" fill="#f7c1d8" stroke="none" stroke-width="1" stroke-linecap="butt" stroke-linejoin="miter"/><path d="M251.9922,279.27643c4.2921,0 7.77178,3.47969 7.77178,7.77178c0,4.2921 -3.47969,7.77178 -7.77178,7.77178c-4.2921,0 -7.77178,-3.47969 -7.77178,-7.77178c0,-4.2921 3.47969,-7.77178 7.77178,-7.77178zM251.9922,290.87193c2.12481,-0.05129 3.81076,-1.80616 3.77657,-3.93097c-0.03368,-2.12481 -1.77508,-3.82527 -3.9004,-3.80869c-2.12481,0.0171 -3.83926,1.74399 -3.83978,3.86931c-0.00052,1.04297 0.42019,2.04191 1.16629,2.77038c0.74609,0.72848 1.75487,1.12535 2.79732,1.09997z" fill="#5e154d" stroke="#5e154d" stroke-width="1.44" stroke-linecap="round" stroke-linejoin="round"/><path d="M253.39889,285.59489c0.36009,0.36061 0.58288,0.858 0.58288,1.40669c0,0.54869 -0.22279,1.04608 -0.58288,1.40669c-0.36061,0.36009 -0.858,0.58288 -1.40669,0.58288c-0.54869,0 -1.04608,-0.22279 -1.40669,-0.58288c-0.36009,-0.36061 -0.58288,-0.858 -0.58288,-1.40669c0,-0.54869 0.22279,-1.04608 0.58288,-1.40669c0.36061,-0.36009 0.858,-0.58288 1.40669,-0.58288c0.54869,0 1.04608,0.22279 1.40669,0.58288z" fill="#ffffff" stroke="#da53d6" stroke-width="1.08" stroke-linecap="round" stroke-linejoin="round"/></g><g data-paper-data="{&quot;index&quot;:null}"><path d="M184.93725,280.7997c3.43357,0 6.21743,2.78385 6.21743,6.21743c0,3.43357 -2.78385,6.21743 -6.21743,6.21743c-3.43357,0 -6.21743,-2.78385 -6.21743,-6.21743c0,-3.43357 2.78385,-6.21743 6.21743,-6.21743z" fill="#f7c1d8" stroke="none" stroke-width="1" stroke-linecap="butt" stroke-linejoin="miter"/><path d="M184.93725,279.27643c4.2921,0 7.77178,3.47969 7.77178,7.77178c0,4.2921 -3.47969,7.77178 -7.77178,7.77178c-4.2921,0 -7.77178,-3.47969 -7.77178,-7.77178c0,-4.2921 3.47969,-7.77178 7.77178,-7.77178zM184.93725,290.87193c1.56524,0 2.97659,-0.94298 3.57554,-2.38905c0.59946,-1.44659 0.26787,-3.1113 -0.83883,-4.21801c-1.1067,-1.1067 -2.77142,-1.4383 -4.21801,-0.83883c-1.44607,0.59895 -2.38905,2.0103 -2.38905,3.57554c-0.00414,1.02795 0.40206,2.01445 1.12898,2.74137c0.72692,0.72692 1.71342,1.13313 2.74137,1.12898z" fill="#5e154d" stroke="#5e154d" stroke-width="1.44" stroke-linecap="round" stroke-linejoin="round"/><path d="M186.34394,285.59489c0.36009,0.36061 0.58288,0.858 0.58288,1.40669c0,0.54869 -0.22279,1.04608 -0.58288,1.40669c-0.36061,0.36009 -0.858,0.58288 -1.40669,0.58288c-0.54869,0 -1.04608,-0.22279 -1.40669,-0.58288c-0.36009,-0.36061 -0.58288,-0.858 -0.58288,-1.40669c0,-0.54869 0.22279,-1.04608 0.58288,-1.40669c0.36061,-0.36009 0.858,-0.58288 1.40669,-0.58288c0.54869,0 1.04608,0.22279 1.40669,0.58288z" fill="#ffffff" stroke="#da53d6" stroke-width="1.08" stroke-linecap="round" stroke-linejoin="round"/></g><g data-paper-data="{&quot;index&quot;:null}"><path d="M162.53897,280.7997c3.43357,0 6.21743,2.78385 6.21743,6.21743c0,3.43357 -2.78385,6.21743 -6.21743,6.21743c-3.43357,0 -6.21743,-2.78385 -6.21743,-6.21743c0,-3.43357 2.78385,-6.21743 6.21743,-6.21743z" fill="#f7c1d8" stroke="none" stroke-width="1" stroke-linecap="butt" stroke-linejoin="miter"/><path d="M162.53897,279.27643c4.2921,0 7.77178,3.47969 7.77178,7.77178c0,4.2921 -3.47969,7.77178 -7.77178,7.77178c-4.2921,0 -7.77178,-3.47969 -7.77178,-7.77178c0,-2.06108 0.81863,-4.03822 2.2761,-5.49569c1.45747,-1.45747 3.43461,-2.2761 5.49569,-2.2761zM162.53897,290.87193c2.13776,0 3.87035,-1.73259 3.87035,-3.87035c0,-2.13776 -1.73259,-3.87035 -3.87035,-3.87035c-2.13776,0 -3.87035,1.73259 -3.87035,3.87035c0,2.13776 1.73259,3.87035 3.87035,3.87035z" fill="#5e154d" stroke="#5e154d" stroke-width="1.44" stroke-linecap="round" stroke-linejoin="round"/><path d="M163.99229,285.59489c0.36009,0.36061 0.58288,0.858 0.58288,1.40669c0,0.54869 -0.22279,1.04608 -0.58288,1.40669c-0.36061,0.36009 -0.858,0.58288 -1.40669,0.58288c-0.54869,0 -1.04608,-0.22279 -1.40669,-0.58288c-0.36009,-0.36061 -0.58288,-0.858 -0.58288,-1.40669c0,-0.54869 0.22279,-1.04608 0.58288,-1.40669c0.36061,-0.36009 0.858,-0.58288 1.40669,-0.58288c0.54869,0 1.04608,0.22279 1.40669,0.58288z" fill="#ffffff" stroke="#da53d6" stroke-width="1.08" stroke-linecap="round" stroke-linejoin="round"/></g><g data-paper-data="{&quot;index&quot;:null}" stroke="#5e154d" stroke-linejoin="miter"><g><path d="M216.55286,288.36942h-14.54878v-6.82363h14.54878z" fill="#fdbb38" stroke-width="1.44" stroke-linecap="butt"/><path d="M212.26284,281.54579v6.82363" fill="none" stroke-width="1.08" stroke-linecap="round"/><path d="M206.27857,288.36942v-6.82363" fill="none" stroke-width="1.08" stroke-linecap="round"/></g><path d="M229.65609,281.54579h-95.5774v-4.86514h95.5774z" fill="#ffffff" stroke-width="1.44" stroke-linecap="round"/><path d="M229.65609,287.00159h-92.32879v-5.45579h92.32879z" fill="#fdbb38" stroke-width="1.44" stroke-linecap="butt"/></g><g data-paper-data="{&quot;index&quot;:null}"><path d="M269.40099,267.83637l-10.49191,-5.90656l-0.48185,-2.2849c0,0 9.46603,5.23818 11.50224,6.38841c2.31599,1.29012 2.30045,2.40925 2.30045,5.16046v15.80781h-1.64762v-15.96324c-0.03109,-1.39892 -0.07772,-2.54915 -1.18131,-3.20197z" fill="#25b0b7" stroke="none" stroke-width="1" stroke-linecap="butt" stroke-linejoin="miter"/><path d="M250.63991,239.14294c2.25382,0 3.21752,0.6062 3.746,2.96882c0.1088,0.55957 0.37305,1.67871 0.68392,3.10871h-1.91186c-0.64039,0.00829 -1.15748,0.52537 -1.16577,1.16577v11.05148c0,0.64661 0.51967,1.17302 1.16577,1.18131h4.98949l0.2487,1.02588l0.51294,2.2849l10.523,5.90656c1.10359,0.62174 1.15022,1.80305 1.15022,3.20197v15.96324h-8.75103c0,-5.33973 -4.32837,-9.6681 -9.6681,-9.6681c-5.33973,0 -9.6681,4.32837 -9.6681,9.6681h-12.8079v-47.85864z" fill="#43c3d7" stroke="none" stroke-width="1" stroke-linecap="butt" stroke-linejoin="miter"/><path d="M239.37082,263.48417h-4.84959v-1.83414h4.84959z" fill="none" stroke="#009cc6" stroke-width="1.08" stroke-linecap="round" stroke-linejoin="round"/><path d="M266.77413,281.56134h-3.10871v-1.72534h3.10871z" fill="none" stroke="#5e154d" stroke-width="1.44" stroke-linecap="round" stroke-linejoin="round"/><path d="M233.63525,242.60916h14.39334c0.73469,0.00829 1.32846,0.60205 1.33675,1.33675v30.9317c-4.51023,0.71759 -8.0925,4.17552 -8.96864,8.65777h-6.777c-0.73469,-0.00829 -1.32846,-0.60205 -1.33675,-1.33675v-38.25272c0.00829,-0.74091 0.61138,-1.33675 1.35229,-1.33675z" fill="none" stroke="#009cc6" stroke-width="1.08" stroke-linecap="round" stroke-linejoin="round"/><path d="M247.23587,266.25092h-1.80305v-3.34187h1.80305z" fill="none" stroke="#009cc6" stroke-width="1.08" stroke-linecap="round" stroke-linejoin="round"/><path d="M234.50569,245.22048h1.47664l4.67861,13.39856h-6.15525v-13.39856" fill="#f7c1d8" stroke="none" stroke-width="1" stroke-linecap="butt" stroke-linejoin="miter"/><path d="M247.17369,245.22048v13.39856h-1.89632l-4.67861,-13.39856h6.57493" fill="#f7c1d8" stroke="none" stroke-width="1" stroke-linecap="butt" stroke-linejoin="miter"/><path d="M240.59876,245.22048l4.67861,13.39856h-2.34708l-4.69416,-13.39856h2.36262" fill="#ffeef6" stroke="none" stroke-width="1" stroke-linecap="butt" stroke-linejoin="miter"/><path d="M253.15797,245.17385h1.91186c0.94816,4.15013 2.50251,10.8805 3.10871,13.39856h-1.77197l-4.36774,-12.43485c0.10673,-0.5404 0.56889,-0.93831 1.11914,-0.9637z" fill="#f7c1d8" stroke="none" stroke-width="1" stroke-linecap="butt" stroke-linejoin="miter"/><path d="M255.06982,258.61903h-1.91186c-0.64609,-0.00829 -1.16577,-0.5347 -1.16577,-1.18131v-7.94276z" fill="#f7c1d8" stroke="none" stroke-width="1" stroke-linecap="butt" stroke-linejoin="miter"/><path d="M251.9922,246.38624c-0.00777,-0.07772 -0.00777,-0.15544 0,-0.23315l4.36774,12.43485h-1.30566l-3.10871,-9.12407z" fill="#ffeef6" stroke="none" stroke-width="1" stroke-linecap="butt" stroke-linejoin="miter"/><path d="M238.23614,245.22048l4.69416,13.39856h-1.22794l-4.67861,-13.39856h1.2124" fill="#f7c1d8" stroke="none" stroke-width="1" stroke-linecap="butt" stroke-linejoin="miter"/><path d="M237.02374,245.22048l4.67861,13.39856h-1.04142l-4.67861,-13.39856h1.04142" fill="#ffeef6" stroke="none" stroke-width="1" stroke-linecap="butt" stroke-linejoin="miter"/><path d="M257.99202,242.15839c0.65283,0 0.80827,0.68392 1.18131,1.9274c0.51294,1.72534 1.38338,5.03612 1.38338,5.03612h-2.40925l-1.70979,-6.96352z" fill="#43c3d7" stroke="#5e154d" stroke-width="1.08" stroke-linecap="round" stroke-linejoin="round"/><path d="M256.43766,242.15839l0.45076,1.80305h-2.09838l-0.40413,-1.80305h2.05175" fill="#43c3d7" stroke="#5e154d" stroke-width="1.08" stroke-linecap="round" stroke-linejoin="round"/><path d="M250.63991,239.14294c2.25382,0 3.21752,0.6062 3.746,2.96882c0.1088,0.55957 0.37305,1.67871 0.68392,3.10871c0.94816,4.15013 2.50251,10.8805 3.10871,13.39856l0.2487,1.02588c0,0 9.46603,5.23818 11.50224,6.38841c2.31599,1.29012 2.30045,2.40925 2.30045,5.16046v15.80781h-10.39865c0,-5.33973 -4.32837,-9.6681 -9.6681,-9.6681c-5.33973,0 -9.6681,4.32837 -9.6681,9.6681h-12.8079v-47.85864z" fill="none" stroke="#5e154d" stroke-width="1.44" stroke-linecap="butt" stroke-linejoin="round"/><path d="M247.17369,258.61903h-12.66801v-13.39856h12.66801z" fill="none" stroke="#5e154d" stroke-width="1.08" stroke-linecap="round" stroke-linejoin="round"/><path d="M250.63991,239.14294c2.25382,0 3.21752,0.6062 3.746,2.96882c0.1088,0.55957 0.37305,1.67871 0.68392,3.10871c0.94816,4.15013 2.50251,10.8805 3.10871,13.39856l0.2487,1.02588c0,0 9.46603,5.23818 11.50224,6.38841c2.31599,1.29012 2.30045,2.40925 2.30045,5.16046v15.80781h-10.39865c0,-5.33973 -4.32837,-9.6681 -9.6681,-9.6681c-5.33973,0 -9.6681,4.32837 -9.6681,9.6681h-12.8079v-47.85864z" fill="none" stroke="#5e154d" stroke-width="1.44" stroke-linecap="round" stroke-linejoin="round"/><path d="M252.00774,246.15309c0.12176,-0.53936 0.59739,-0.92484 1.15022,-0.93261h1.91186c0.94816,4.15013 2.50251,10.8805 3.10871,13.39856h-5.02057c-0.64609,-0.00829 -1.16577,-0.5347 -1.16577,-1.18131v-11.05148c-0.00259,-0.07824 0.00259,-0.15595 0.01554,-0.23315z" fill="none" stroke="#5e154d" stroke-width="1.08" stroke-linecap="round" stroke-linejoin="round"/><path d="M273.3646,282.82037v1.44555h-6.85471l-0.31087,-1.44555h7.16558" fill="#00828c" stroke="#5e154d" stroke-width="1.08" stroke-linecap="round" stroke-linejoin="round"/><path d="M273.3646,285.54049h-6.59047l-0.26424,-1.27457h6.85471v1.27457" fill="#00828c" stroke="#5e154d" stroke-width="1.08" stroke-linecap="round" stroke-linejoin="round"/><path d="M265.93478,281.54579h7.42983v1.27457h-7.16558l-0.26424,-1.27457" fill="#00828c" stroke="#5e154d" stroke-width="1.08" stroke-linecap="round" stroke-linejoin="round"/><path d="M272.19884,273.64966h1.16577c0.90153,0 1.29012,1.3212 1.44555,2.65795h-2.61132z" fill="#fdbb38" stroke="none" stroke-width="1" stroke-linecap="butt" stroke-linejoin="miter"/><path d="M274.81016,276.26098c0.10414,0.88184 0.14041,1.77041 0.1088,2.65795h-2.72012v-2.65795z" fill="#ffffff" stroke="none" stroke-width="1" stroke-linecap="butt" stroke-linejoin="miter"/><path d="M273.3646,273.64966c0.90153,0 1.29012,1.3212 1.44555,2.65795c0.10414,0.88184 0.14041,1.77041 0.1088,2.65795h-2.72012v-5.3159z" fill="none" stroke="#5e154d" stroke-width="1.44" stroke-linecap="round" stroke-linejoin="round"/></g></g><g fill-rule="nonzero" stroke-linejoin="miter"><path d="M173.92733,219.04697l3.73258,-4.12549l5.50065,4.97678l-3.73258,4.12549z" data-paper-data="{&quot;index&quot;:null}" fill="#66b3ff" stroke="#f04848" stroke-width="2" stroke-linecap="butt"/><path d="M186.7003,224.02375l-3.73258,-4.12549l5.50065,-4.97678l3.73258,4.12549z" fill="#66b3ff" stroke="#f04848" stroke-width="2" stroke-linecap="butt"/><path d="M183.45159,250.72654v-23.24671" fill="none" stroke="#ef4848" stroke-width="3" stroke-linecap="round"/><path d="M194.81663,261.67986c0,7.3823 -5.31958,13.36685 -11.88166,13.36685c-6.56204,0 -11.88166,-5.98454 -11.88166,-13.36685c0,-7.3823 5.31958,-13.36685 11.88166,-13.36685c6.56204,0 11.88166,5.98454 11.88166,13.36685z" fill="#ffb366" stroke="#ef4848" stroke-width="3" stroke-linecap="butt"/><path d="M186.6803,223.34708c0,2.21906 -1.61902,4.01793 -3.61616,4.01793c-1.99714,0 -3.61616,-1.7989 -3.61616,-4.01793c0,-2.21906 1.61902,-4.01793 3.61616,-4.01793c1.99714,0 3.61616,1.7989 3.61616,4.01793z" fill="#66ffbe" stroke="#68f048" stroke-width="0.5" stroke-linecap="butt"/><text transform="translate(13.02079,200.92323) scale(1.19973,1.19973)" font-size="40" xml:space="preserve" fill="#66b3ff" fill-rule="nonzero" stroke="none" stroke-width="1" stroke-linecap="butt" stroke-linejoin="miter" stroke-miterlimit="10" stroke-dasharray="" stroke-dashoffset="0" font-family="Curly" font-weight="normal" text-anchor="start" style="mix-blend-mode: normal"><tspan x="0" dy="0">HAPPY HALLOWEEN</tspan></text></g><g data-paper-data="{&quot;index&quot;:null}" fill-rule="evenodd" stroke="none" stroke-width="1" stroke-linecap="butt" stroke-linejoin="miter"><g><g><path d="M221.78091,271.51729c0.05941,-0.31644 0.39601,-2.03711 0.59401,-2.88756h3.54422c-0.43559,0.92956 -1.485,3.06557 -1.485,3.06557c0,0 -1.90082,0.07911 -2.65322,-0.17801z" fill="#a0640a"/><path d="M222.11752,267.60129c0,0 0.23759,-2.13601 2.45522,-2.4129c2.2176,-0.27688 2.51462,0.94933 2.51462,0.94933l-1.10882,3.95558l-4.29664,0.07911z" fill="#000000"/></g><g><g><path d="M218.91488,278.34759c-0.01979,-0.01979 0.03961,-0.17801 0.03961,-0.21757c0.23761,0 1.089,-0.07911 1.30682,-0.11867l1.50479,0.39555c-0.05941,0.13846 -0.1386,0.33623 -0.23759,0.4549c0,0 -2.47504,-0.47466 -2.61364,-0.51422z" fill="#000000"/><path d="M220.26131,278.01135l1.26721,-6.62557h3.44523c-0.37621,0.77134 -0.71281,1.50312 -0.79201,1.7009c-0.65341,1.74043 -2.25722,5.08289 -2.39582,5.32022z" fill="#f01446"/></g><path d="M224.57773,272.47357l-3.30663,-0.01978l0.1386,-0.63289l3.46503,-0.03956z" fill="#f5cfcf"/><path d="M224.08273,273.56135l-3.04923,-0.178l0.1386,-0.57356l3.22743,0.05933z" fill="#f5cfcf"/></g></g><g><g><path d="M232.72319,270.70366c-0.45541,0.37579 -0.99001,0.65267 -1.44542,0.94935c-0.37618,0.21754 -0.9306,0.83066 -1.36619,0.85042c-0.63362,-0.85043 -0.89103,-1.87889 -1.08903,-2.86777c0.49502,-0.19777 3.12845,-0.7911 3.52445,-0.47466c0.03958,0.51421 0.05937,1.06799 0.37618,1.54265z" fill="#a0640a"/><path d="M229.39676,264.45387c2.41561,-0.57356 2.97003,1.44378 2.97003,1.44378l0.7524,3.34246l-5.00943,1.28556l-0.59401,-3.3227c0,-0.01976 -0.57421,-2.17554 1.88101,-2.7491z" fill="#000000"/></g><g><path d="M238.58457,271.3162h0.29702c0.198,0.07911 0.73261,2.35355 0.79201,2.59088l-0.23761,-0.01976c-0.1386,-0.23736 -0.45541,-0.83069 -0.63359,-1.08778l-0.43562,-1.36467c0.1188,-0.07911 0.1188,-0.07911 0.21779,-0.11867z" fill="#000000"/><path d="M234.30775,274.65864c-0.65341,0.01979 -1.28703,-0.01977 -1.94041,-0.19778c-0.63362,-0.07911 -1.16822,-0.23733 -1.44542,-0.43511c-0.4554,-0.31644 -1.22762,-1.22621 -1.54443,-1.68111l3.40565,-1.91844c0.0594,0.11866 0.2574,0.43511 0.3366,0.53398c0.43559,0.57356 1.04942,0.98891 1.74241,1.22624c1.1484,0.31644 2.57402,-0.11866 3.52442,-0.77134l0.43562,1.36467c-0.85141,0.59333 -1.64342,1.02847 -2.61364,1.42402c-0.5544,0.23733 -1.80181,0.45487 -1.9008,0.45487z" fill="#f01446"/></g><path d="M229.63492,272.95833l3.40563,-2.25467l0.3168,0.37578l-3.22743,2.4129z" fill="#f5cfcf"/><path d="M230.64473,274.04613l2.87102,-2.74912l0.396,0.31644l-2.35622,2.78867z" fill="#f5cfcf"/></g><path d="M232.35105,265.89246c0,-0.01978 -9.91989,1.66134 -10.23669,1.72067l0.4752,-2.92712l9.06848,-1.76023l0.69301,2.96667z" fill="#000000"/><g><path d="M221.3551,249.65485c0,0 -1.64339,0.4549 -2.11859,-1.10755c-0.47523,-1.56244 1.8216,-1.10757 2.11859,-0.33623c0.15842,0.37579 0,1.44378 0,1.44378z" fill="#824600"/><path d="M219.8107,247.14309c0,-1.1669 0.69302,-2.70958 0.89102,-2.94691c0.1386,-0.19778 2.67301,-0.73179 2.67301,-0.73179l5.56385,3.04578c-0.1386,0.63291 -0.31681,1.246 -0.51481,1.83936c-0.65341,1.54265 -1.7622,3.204 -2.93042,3.57979c-0.63362,0.19777 -3.04923,0.45487 -4.27685,-0.83069c-0.71279,-0.77134 -1.4256,-2.27444 -1.40581,-3.95555z" fill="#a0640a"/><path d="M229.49297,242.93039c0.29701,-0.17801 0.89102,-0.77134 1.22762,-0.49445c0.4554,0.37576 -0.0792,1.62176 -0.2772,2.0569c-0.25741,0.57354 -2.41564,4.54888 -2.41564,4.54888c0,0 0.01979,-2.66999 -1.94041,-3.44133c-1.96023,-0.77134 -3.24723,0 -3.97983,-0.13843c-1.48503,-0.25712 -1.48503,-1.246 -1.48503,-1.246c0,0 0.95043,-1.58223 1.64342,-2.47224c0.2772,-0.37579 0.53461,-0.87021 1.10882,-0.85045c0.85142,0.01979 0.45541,0.8109 0.59401,1.38446l0.17821,0.01976c0.75239,-0.73176 1.36619,-2.55133 2.65322,-1.81954c0.43559,0.39556 0.198,1.04823 0.11878,1.56245c0.1188,0.07911 0.1188,0.07911 0.23761,0.01976c0.19801,-0.61312 1.18802,-1.38443 1.88101,-1.246c1.12861,0.23733 0.55443,1.30535 0.27723,1.99755l0.17818,0.11869z" fill="#000000"/><path d="M227.73078,248.07264c0.29699,-0.77134 2.59382,-1.22624 2.11862,0.33621c-0.47523,1.56244 -2.11862,1.10757 -2.11862,1.10757c0,0 -0.1386,-1.06802 0,-1.44378z" fill="#a0640a"/><path d="M222.24612,249.85263c0.79201,-0.33621 1.56423,-0.65268 2.41561,-0.73179c0.79201,1.22624 -2.01961,2.0767 -2.41561,0.73179z" fill="#000000"/><path d="M221.51352,248.32973c0.23759,-1.246 2.07901,-0.47466 1.60381,0.37579c-0.57422,0.13843 -1.76223,0.59333 -1.60381,-0.37579z" fill="#824600"/><g fill="#000000"><path d="M225.03314,248.12937h-0.198l-0.11881,-0.27689c0.11881,-0.57356 0.37621,-0.05934 0.31681,0.27689z"/><path d="M220.43948,248.56448c-0.0594,-0.17799 -0.0594,-0.356 0,-0.51422c0.1188,-0.03956 0.1188,-0.03956 0.23761,0.0989l-0.0594,0.39555l-0.17821,0.01976z"/></g></g><g><path d="M210.40783,257.70124c-0.1386,-0.33621 0.77222,0.41534 0.93061,0.23733c0.17821,-0.17798 -0.891,-0.63288 -0.79201,-0.7911c0.0594,-0.13846 1.02962,0.39555 1.1484,0.25712c0.11881,-0.13846 -0.85138,-0.59336 -0.83159,-0.69223c0.05941,-0.11866 0.43559,0.11867 1.2276,0.33621c0.27723,0.07914 0.91082,0.31647 1.24742,0.37579c0.43561,0.07911 0.89102,0.07911 1.3464,0.05935c-0.01979,0.01977 2.31662,-0.39555 2.98985,-0.63291c0.39601,-0.13843 1.74241,-0.85043 2.9106,-1.34488v3.56c-1.10879,0.25713 -3.78183,0.83069 -6.21723,0.43511c-1.99981,-0.33621 -3.90064,-1.64156 -3.96004,-1.79978z" fill="#a0640a"/><path d="M218.7239,255.80261c0.23761,-0.11869 4.65306,-1.87892 4.61345,-1.83936c0,0 2.31662,-1.1471 3.12842,0.92956c0.8118,2.07666 -2.81161,3.67869 -2.81161,3.67869c-0.79201,0.39555 -3.90064,1.38443 -3.90064,1.38443c0,0 -1.02962,-4.07422 -1.02962,-4.15333z" fill="#be0a3c"/><path d="M213.00166,258.01768c-0.49499,0.03956 -0.99001,-0.41531 -0.49499,-0.77131c-0.198,-0.35602 -0.45541,-0.67246 -0.31681,-0.79113c0.15839,-0.11866 1.40581,1.04823 1.40581,1.04823c0,0 -0.11881,0.49446 -0.59401,0.51422z" fill="#824600"/></g><g><path d="M237.7367,259.35712c0.13859,0.21754 1.02962,2.68979 0.396,2.86777c-0.27719,-0.13843 -0.51481,-2.61068 -0.396,-2.86777z" fill="#824600"/><path d="M230.72742,252.2173c1.02962,-0.09888 3.62344,0.57356 4.47485,1.08778c1.04942,0.59333 1.94041,1.44378 2.59382,2.45245c1.24742,1.89868 3.00962,6.32892 2.87102,6.5267c-0.1386,0.19777 -0.45541,-1.04823 -0.83159,-0.9098c-0.37621,0.13846 0.37618,1.34491 0.17818,1.50313c-0.19801,0.15822 -0.77219,-1.34491 -0.93061,-1.22624c-0.15839,0.11869 0.43562,1.16689 0.31681,1.246c-0.11881,0.07911 -1.90082,-3.1051 -2.97003,-4.33134c-0.4752,-0.57353 -1.4058,-1.64155 -2.0196,-2.07666c-0.79201,-0.53401 -1.96023,-0.89 -2.98982,-0.71199l-0.69302,-3.56003z" fill="#a0640a"/><path d="M223.79739,253.70063c0.0594,-0.01976 3.366,-1.58221 5.50444,-1.76022c2.13841,-0.17798 2.91063,0.11867 2.91063,0.11867l-0.23761,4.0149c0,0 -1.8216,0.07911 -3.42544,0.77134c0,0 -2.574,1.22624 -4.09861,-0.47466c-1.52461,-1.7009 -0.65341,-2.67002 -0.65341,-2.67002z" fill="#f01446"/></g><path d="M222.23318,265.27934c0.0198,0 -1.10881,-5.39935 -1.14841,-6.68491c-0.0594,-2.41289 1.42561,-5.37956 4.15803,-5.14223c0.9108,0.07911 2.01961,0.33622 2.77202,0.89c0.0792,0.05933 1.54441,1.68111 1.76221,2.15578c1.10881,2.25467 3.10863,7.8518 3.10863,7.8518l-10.65249,0.92956z" fill="#f01446"/></g></g></g></svg>