<svg version="1.1" xmlns="http://www.w3.org/2000/svg" xmlns:xlink="http://www.w3.org/1999/xlink" width="425.65461" height="124.39101" viewBox="0,0,425.65461,124.39101"><g transform="translate(-36.28292,-68.1557)"><g data-paper-data="{&quot;isPaintingLayer&quot;:true}" fill-rule="nonzero" stroke-linejoin="miter" stroke-miterlimit="10" stroke-dasharray="" stroke-dashoffset="0" style="mix-blend-mode: normal"><path d="M172.92733,135.04697l3.73258,-4.12549l5.50065,4.97678l-3.73258,4.12549z" data-paper-data="{&quot;index&quot;:null}" fill="#66b3ff" stroke="#f04848" stroke-width="2" stroke-linecap="butt"/><path d="M185.7003,140.02375l-3.73258,-4.12549l5.50065,-4.97678l3.73258,4.12549z" fill="#66b3ff" stroke="#f04848" stroke-width="2" stroke-linecap="butt"/><path d="M182.45159,143.47983v23.24671" fill="none" stroke="#ef4848" stroke-width="3" stroke-linecap="round"/><path d="M193.81663,177.67986c0,7.3823 -5.31958,13.36685 -11.88166,13.36685c-6.56204,0 -11.88166,-5.98454 -11.88166,-13.36685c0,-7.3823 5.31958,-13.36685 11.88166,-13.36685c6.56204,0 11.88166,5.98454 11.88166,13.36685z" fill="#ffb366" stroke="#ef4848" stroke-width="3" stroke-linecap="butt"/><path d="M185.6803,139.34708c0,2.21906 -1.61902,4.01793 -3.61616,4.01793c-1.99714,0 -3.61616,-1.7989 -3.61616,-4.01793c0,-2.21906 1.61902,-4.01793 3.61616,-4.01793c1.99714,0 3.61616,1.7989 3.61616,4.01793z" fill="#66ffbe" stroke="#68f048" stroke-width="0.5" stroke-linecap="butt"/><text transform="translate(43.54604,117.72557) scale(1.26659,1.26659)" font-size="40" xml:space="preserve" fill="#66b3ff" fill-rule="nonzero" stroke="none" stroke-width="1" stroke-linecap="butt" stroke-linejoin="miter" stroke-miterlimit="10" stroke-dasharray="" stroke-dashoffset="0" font-family="Curly" font-weight="normal" text-anchor="start" style="mix-blend-mode: normal"><tspan x="0" dy="0">HAPPY HALLOWE</tspan></text></g></g></svg>